<svg id="Capa_1" data-name="Capa 1" xmlns="http://www.w3.org/2000/svg" viewBox="0 0 320.14 71.14"><defs><style>.cls-1{fill:#00681b;}</style></defs><path class="cls-1" d="M90.68,47.55h12.57l-2.23,9H88.45Z"/><path class="cls-1" d="M169.3,3.93h26.86c-1.58,2.06-2.73,4-4,9l-8.59,34.5c-1.25,5-1.08,7-.53,9H159.66c1.5-2,2.65-4,3.89-9l8.06-32.37h-.16L146.6,56.5H132.72L128.9,15.1h-.16l-8,31.95c-1.47,5.92-1.49,7-.38,9.45H107.75c2.34-2.46,2.85-3.53,4.33-9.45l8.38-33.67c1.47-5.92,1.49-7,.38-9.45h27.6L151,33.75h.17Z"/><path class="cls-1" d="M204.93,10.66a9.93,9.93,0,0,1,9.19-7.36c4.12,0,6.55,3.24,5.53,7.36A9.94,9.94,0,0,1,210.46,18C206.34,18,203.9,14.78,204.93,10.66Zm11.94,0c.65-2.62-.76-4.79-3.39-4.79a6.34,6.34,0,0,0-5.77,4.79c-.66,2.63.76,4.79,3.39,4.79A6.33,6.33,0,0,0,216.87,10.66Z"/><path class="cls-1" d="M279.14,14a17.68,17.68,0,0,0-7.7-1.4H257.07c-2.63,0-4.15.82-4.78,3.37l-7.08,28.42c-.63,2.54.48,3.36,3.11,3.36h11.33c8.05,0,9.51-.57,12.57-2L267.83,56.5H235.47c-8.54,0-12.28-4.11-9.46-15.44l5.4-21.68C234.23,8,240,3.93,248.56,3.93H280.1Z"/><path class="cls-1" d="M297.49,47.55h12.57l-2.23,9H295.26Z"/><path d="M12.45,69H9V62.07h6a13.41,13.41,0,0,1,1.6.09,8.33,8.33,0,0,1,1.39.29A2.44,2.44,0,0,1,19,63a1.19,1.19,0,0,1,.38.9,1.27,1.27,0,0,1-.77,1.15,5.5,5.5,0,0,1-2.07.58,4,4,0,0,1,1.38.36,1.94,1.94,0,0,1,.76.77L19.93,69H16.18l-.94-1.76a1.63,1.63,0,0,0-.61-.69,2.7,2.7,0,0,0-1.2-.18h-1Zm0-5.63v1.71h1.16c1.49,0,2.23-.3,2.23-.88,0-.32-.2-.54-.58-.65a5.53,5.53,0,0,0-1.58-.18Z"/><path d="M36,69h-9.2V62.07h9.05v1.34H30.33v1.42h5.34v1.33H30.33v1.49H36Z"/><path d="M46.88,69H43.31V62.07h8.93v1.34H46.88V65H52v1.33H46.88Z"/><path d="M62.84,69H59.35V62.07H65.4a13.36,13.36,0,0,1,1.59.09,8.33,8.33,0,0,1,1.39.29,2.38,2.38,0,0,1,1,.58,1.19,1.19,0,0,1,.38.9A1.27,1.27,0,0,1,69,65.08a5.5,5.5,0,0,1-2.07.58,4,4,0,0,1,1.38.36,1.94,1.94,0,0,1,.76.77L70.32,69H66.57l-.94-1.76a1.57,1.57,0,0,0-.61-.69,2.7,2.7,0,0,0-1.2-.18h-1Zm0-5.63v1.71H64c1.49,0,2.23-.3,2.23-.88,0-.32-.19-.54-.58-.65a5.5,5.5,0,0,0-1.57-.18Z"/><path d="M80.8,69H77.23V62.07H80.8Z"/><path d="M96.26,66.24H94.07V65h5.28v3.7a22.94,22.94,0,0,1-4.31.4A12,12,0,0,1,90,68.18a2.89,2.89,0,0,1-2-2.65A2.25,2.25,0,0,1,88.6,64a4.52,4.52,0,0,1,1.68-1.13,11.1,11.1,0,0,1,2.36-.66A16.22,16.22,0,0,1,95.37,62a23.53,23.53,0,0,1,3.78.28L99,63.73a11.2,11.2,0,0,0-3.15-.39,6.78,6.78,0,0,0-3,.59,1.77,1.77,0,0,0-1.17,1.6,1.86,1.86,0,0,0,.88,1.58,4.46,4.46,0,0,0,2.56.61,10.42,10.42,0,0,0,1.13-.06Z"/><path d="M116.13,69h-9.19V62.07h9v1.34h-5.56v1.42h5.34v1.33h-5.34v1.49h5.7Z"/><path d="M126.9,69h-3.49V62.07h6a13.12,13.12,0,0,1,1.59.09,8.45,8.45,0,0,1,1.4.29,2.44,2.44,0,0,1,1,.58,1.23,1.23,0,0,1,.38.9,1.29,1.29,0,0,1-.77,1.15,5.5,5.5,0,0,1-2.07.58,3.89,3.89,0,0,1,1.37.36,1.82,1.82,0,0,1,.76.77l1.23,2.2h-3.74l-.94-1.76a1.7,1.7,0,0,0-.61-.69,2.7,2.7,0,0,0-1.2-.18h-1Zm0-5.63v1.71H128c1.48,0,2.23-.3,2.23-.88,0-.32-.2-.54-.58-.65a5.53,5.53,0,0,0-1.58-.18Z"/><path d="M143.53,69H140l4.44-6.92h4.79L153.74,69H150l-.94-1.62h-4.58Zm3.28-5.73L145.15,66h3.27Z"/><path d="M169.2,67.4l.11,1.42a13.61,13.61,0,0,1-3,.29,12.13,12.13,0,0,1-5.14-.92,2.88,2.88,0,0,1-1.94-2.66c0-1.08.67-2,2-2.6a11.75,11.75,0,0,1,5-1,17.27,17.27,0,0,1,3,.21l-.11,1.45a12.37,12.37,0,0,0-2.4-.23A5.66,5.66,0,0,0,164,64a1.72,1.72,0,0,0-.05,3.15,5.9,5.9,0,0,0,2.81.56A10,10,0,0,0,169.2,67.4Z"/><path d="M179.9,69h-3.57V62.07h3.57Z"/><path d="M188.7,68.19a2.88,2.88,0,0,1-1.65-2.66,2.92,2.92,0,0,1,1.67-2.62,9.42,9.42,0,0,1,4.61-.95,9.55,9.55,0,0,1,4.64.93,2.92,2.92,0,0,1,0,5.28,12,12,0,0,1-9.25,0ZM191.28,67a2.56,2.56,0,0,0,2.05.77,3.48,3.48,0,0,0,1.29-.21,1.74,1.74,0,0,0,.8-.56,2.26,2.26,0,0,0,.37-.7,2.76,2.76,0,0,0,.11-.77,2.68,2.68,0,0,0-.11-.76,2.26,2.26,0,0,0-.37-.7,1.74,1.74,0,0,0-.8-.56,3.48,3.48,0,0,0-1.29-.21,3.26,3.26,0,0,0-1.26.22,1.74,1.74,0,0,0-.8.56,2.45,2.45,0,0,0-.38.71,2.65,2.65,0,0,0-.11.74A2.29,2.29,0,0,0,191.28,67Zm3-5.52H192l1.32-1.42h3.21Z"/><path d="M209.91,69h-3.12V62.07h5.27l3.51,5.37V62.07h3.1V69H213.4l-3.49-5.37Z"/><path d="M237,68.8l.09-1.46a14.75,14.75,0,0,0,3.7.43,6.12,6.12,0,0,0,1.43-.16c.41-.11.61-.29.61-.55s-.15-.37-.46-.48a11.47,11.47,0,0,0-1.75-.42l-.81-.16a6.33,6.33,0,0,1-2.07-.68,1.37,1.37,0,0,1-.22-2.26,3.26,3.26,0,0,1,1.33-.67,11.75,11.75,0,0,1,1.71-.33,15.13,15.13,0,0,1,1.8-.11,25.93,25.93,0,0,1,3.46.24l-.09,1.42a14.69,14.69,0,0,0-3.08-.32c-1.4,0-2.1.23-2.1.68a.46.46,0,0,0,.34.42,8.41,8.41,0,0,0,1.2.28l.18,0,1,.19a8.22,8.22,0,0,1,2.32.71,1.35,1.35,0,0,1,.78,1.26,1.46,1.46,0,0,1-.45,1.06,2.91,2.91,0,0,1-1.2.7,9.86,9.86,0,0,1-1.64.37,13.78,13.78,0,0,1-1.87.12A27.48,27.48,0,0,1,237,68.8Z"/><path d="M256.86,69h-3V67.51h3Z"/><path d="M267,69h-3.51l4.43-6.92h4.8L277.17,69h-3.73l-.94-1.62h-4.58Zm3.28-5.73L268.57,66h3.28Z"/><path d="M286.82,69h-3V67.51h3Z"/><path d="M294.27,68.8l.09-1.46a14.75,14.75,0,0,0,3.7.43,6.06,6.06,0,0,0,1.43-.16c.41-.11.61-.29.61-.55s-.15-.37-.46-.48a11.47,11.47,0,0,0-1.75-.42l-.81-.16a6.18,6.18,0,0,1-2.06-.68,1.36,1.36,0,0,1-.23-2.26,3.33,3.33,0,0,1,1.33-.67,12.29,12.29,0,0,1,1.71-.33,15.26,15.26,0,0,1,1.8-.11,25.82,25.82,0,0,1,3.46.24L303,63.61a14.62,14.62,0,0,0-3.08-.32c-1.4,0-2.1.23-2.1.68,0,.19.12.33.35.42a8.18,8.18,0,0,0,1.19.28l.18,0,1,.19a8.22,8.22,0,0,1,2.32.71,1.35,1.35,0,0,1,.78,1.26,1.49,1.49,0,0,1-.44,1.06,3,3,0,0,1-1.21.7,9.86,9.86,0,0,1-1.64.37,13.78,13.78,0,0,1-1.87.12A27.57,27.57,0,0,1,294.27,68.8Z"/><path d="M314.29,69h-3V67.51h3Z"/><path class="cls-1" d="M70.79,25c-3.1,3.53-3.61,4.6-4.51,8.21l-3.23,13c-1.62,6.49-1.55,7.56-.44,10.35H45l.55-4.84h-.17c-1.66,3-2.85,4.84-8.51,4.84H19.07c-8.54,0-12.28-4.11-9.46-15.44L15,19.38C17.83,8,23.62,3.93,32.17,3.93H70.6L69.65,14a17.71,17.71,0,0,0-7.7-1.4H40.67c-2.62,0-4.14.82-4.78,3.37L28.82,44.43c-.64,2.54.47,3.36,3.1,3.36h6.74c2.62,0,4.14-.82,4.78-3.36l2.68-10.76H38.64a8.28,8.28,0,0,0-3.61,1L37.44,25Z"/></svg>